<?xml version="1.0" encoding="UTF-8"?>
<svg width="60px" height="60px" viewBox="0 0 60 60" version="1.1" xmlns="http://www.w3.org/2000/svg" xmlns:xlink="http://www.w3.org/1999/xlink">
    <!-- Generator: Sketch 52.5 (67469) - http://www.bohemiancoding.com/sketch -->
    <title>Bus</title>
    <desc>Created with Sketch.</desc>
    <g id="Bus" stroke="none" stroke-width="1" fill="none" fill-rule="evenodd">
        <g transform="translate(5.000000, 18.000000)" stroke="#2A8FE5">
            <path d="M40,20.5 L17,20.5" id="Stroke-1"></path>
            <g id="Group-22">
                <path d="M3.32608695,20.7058823 L1.10869565,20.7058823 C0.496695652,20.7058823 0,20.1916863 0,19.5555556 L0,4.60130719 C0,2.06023529 1.98567391,0 4.43478261,0 L43.2391305,0 C47.5253478,0 51,3.60512418 51,8.05228756 L51,19.5555556 C51,20.1916863 50.5033043,20.7058823 49.8913043,20.7058823 L46.5652174,20.7058823" id="Stroke-2"></path>
                <path d="M10.0178571,20.4705882 C10.0178571,22.42 8.48899555,24 6.60267857,24 C4.71636161,24 3.1875,22.42 3.1875,20.4705882 C3.1875,18.5211764 4.71636161,16.9411764 6.60267857,16.9411764 C8.48899555,16.9411764 10.0178571,18.5211764 10.0178571,20.4705882 Z" id="Stroke-4"></path>
                <path d="M16.8482143,20.4705882 C16.8482143,22.42 15.3193527,24 13.4330357,24 C11.5467187,24 10.0178571,22.42 10.0178571,20.4705882 C10.0178571,18.5211764 11.5467187,16.9411764 13.4330357,16.9411764 C15.3193527,16.9411764 16.8482143,18.5211764 16.8482143,20.4705882 Z" id="Stroke-6"></path>
                <path d="M46.4464286,19.3796791 C46.4464286,21.3290909 44.917567,22.9090909 43.03125,22.9090909 C41.144933,22.9090909 39.6160714,21.3290909 39.6160714,19.3796791 C39.6160714,17.4302673 41.144933,15.8502673 43.03125,15.8502673 C44.917567,15.8502673 46.4464286,17.4302673 46.4464286,19.3796791 Z" id="Stroke-8"></path>
                <path d="M40.0714286,3.29411764 L41.7544286,7.88317644 C42.7139571,10.5007059 45.1608643,12.2352941 47.8941,12.2352941 L51,12.2352941" id="Stroke-10"></path>
                <polyline id="Stroke-12" points="42.3482143 8.94117644 22.2885338 8.94117644 0 8.94117644"></polyline>
                <path d="M30.9642857,0 L30.9642857,8.50639207" id="Stroke-14"></path>
                <path d="M23.2232143,0 L23.2232143,8.50639207" id="Stroke-16"></path>
                <path d="M15.4821429,0 L15.4821429,8.50639207" id="Stroke-18"></path>
                <path d="M7.74107141,0 L7.74107141,8.50639207" id="Stroke-20"></path>
            </g>
        </g>
    </g>
</svg>