<?xml version="1.0" encoding="UTF-8"?>
<svg width="60px" height="60px" viewBox="0 0 60 60" version="1.1" xmlns="http://www.w3.org/2000/svg" xmlns:xlink="http://www.w3.org/1999/xlink">
    <!-- Generator: Sketch 52.5 (67469) - http://www.bohemiancoding.com/sketch -->
    <title>Plane</title>
    <desc>Created with Sketch.</desc>
    <g id="Plane" stroke="none" stroke-width="1" fill="none" fill-rule="evenodd">
        <g transform="translate(4.000000, 11.000000)" stroke="#2A8FE5">
            <path d="M32.2608696,21 L48.3913044,21 C50.8650217,21 53,18.886 53,17.5 C53,14.91 46.9994783,12.8333333 42.6304348,12.8333333 L10.3695652,12.8333333 L3.45652174,7 L0,8.16666669 C0,8.16666669 3.52910869,14.511 5.76086956,17.5 C3.16847826,17.5 3.02445652,21 5.76086956,21 L21.8913044,21" id="Stroke-1"></path>
            <polyline id="Stroke-3" points="34 19 27.3333334 27.3125 16.2222222 38 14 36.8125 19.5555555 27.3125 22.8888889 19"></polyline>
            <polyline id="Stroke-5" points="28 12 16.3333333 0 14 1.33333334 19.8333333 12"></polyline>
        </g>
    </g>
</svg>