<?xml version="1.0" encoding="UTF-8"?>
<svg width="60px" height="60px" viewBox="0 0 60 60" version="1.1" xmlns="http://www.w3.org/2000/svg" xmlns:xlink="http://www.w3.org/1999/xlink">
    <!-- Generator: Sketch 52.5 (67469) - http://www.bohemiancoding.com/sketch -->
    <title>Train</title>
    <desc>Created with Sketch.</desc>
    <g id="Train" stroke="none" stroke-width="1" fill="none" fill-rule="evenodd">
        <g id="train" transform="translate(2.000000, 17.000000)" fill="#2A8FE5">
            <path d="M35.1428571,8 L24.8571429,8 C24.3837857,8 24,8.3358125 24,8.75 L24,13.25 C24,13.6641875 24.3837857,14 24.8571429,14 L35.1428571,14 C35.6162143,14 36,13.6641875 36,13.25 L36,8.75 C36,8.3358125 35.6162143,8 35.1428571,8 Z M35.0769231,13.2027972 L24.9230769,13.2027972 L24.9230769,8.81818184 L35.0769231,8.81818184 L35.0769231,13.2027972 Z" id="Shape" fill-rule="nonzero"></path>
            <path d="M21.1428571,8 L10.8571429,8 C10.3837857,8 10,8.3358125 10,8.75 L10,13.25 C10,13.6641875 10.3837857,14 10.8571429,14 L21.1428571,14 C21.6162143,14 22,13.6641875 22,13.25 L22,8.75 C22,8.3358125 21.6162143,8 21.1428571,8 Z M20.9672476,13.2027972 L10.9230769,13.2027972 L10.9230769,8.81818184 L20.9672476,8.81818184 L20.9672476,13.2027972 Z" id="Shape" fill-rule="nonzero"></path>
            <path d="M56.2968851,21.0521978 L56.2968851,9.01923079 C56.2968851,4.85714286 52.7081176,2 49.6336872,2 L0.949586014,2 C0.425177137,2 0,2.44898009 0,3.00274725 L0,21.0521978 C0,21.605965 0.425177137,22.0549451 0.949586014,22.0549451 L3.52843951,22.0549451 C2.82408409,23.2884495 2.82408409,24.8324296 3.52843951,26.0659341 L0,26.0659341 L0.0248391989,27 L57,27 L56.9751608,26.0659341 L49.6336872,26.0659341 C50.3380426,24.8324296 50.3380426,23.2884495 49.6336872,22.0549451 L55.347299,22.0549451 C55.8717079,22.0549451 56.2968851,21.605965 56.2968851,21.0521978 Z M0.863741741,6.64285714 L4.74793007,6.64285714 L4.74793007,12.7142857 L0.863741741,12.7142857 L0.863741741,6.64285714 Z M5.69751608,26.0659341 C4.64857963,26.0659341 3.79834406,25.1680992 3.79834406,24.0604396 C3.79834406,22.9527799 4.64857963,22.0549451 5.69751608,22.0549451 C6.74645253,22.0549451 7.59668811,22.9527799 7.59668811,24.0604396 C7.59668811,25.1680992 6.74645253,26.0659341 5.69751608,26.0659341 Z M13.0083595,26.0659341 L11.923002,26.0659341 L7.80017084,26.0659341 C8.50452625,24.8324296 8.50452625,23.2884495 7.80017084,22.0549451 L13.0083595,22.0549451 C12.304004,23.2884495 12.304004,24.8324296 13.0083595,26.0659341 Z M15.1933762,26.0659341 C14.1444398,26.0659341 13.2942042,25.1680992 13.2942042,24.0604396 C13.2942042,22.9527799 14.1444398,22.0549451 15.1933762,22.0549451 C16.2423127,22.0549451 17.0925482,22.9527799 17.0925482,24.0604396 C17.0925482,25.1680992 16.2423127,26.0659341 15.1933762,26.0659341 Z M35.9486134,26.0659341 L17.3079537,26.0659341 C18.0123092,24.8324296 18.0123092,23.2884495 17.3079537,22.0549451 L35.9486134,22.0549451 C35.244258,23.2884495 35.244258,24.8324296 35.9486134,26.0659341 Z M37.9834405,26.0659341 C36.9345041,26.0659341 36.0842685,25.1680992 36.0842685,24.0604396 C36.0842685,22.9527799 36.9345041,22.0549451 37.9834405,22.0549451 C39.032377,22.0549451 39.8826126,22.9527799 39.8826126,24.0604396 C39.8826126,25.1680992 39.032377,26.0659341 37.9834405,26.0659341 Z M45.3182904,26.0659341 L40.0089944,26.0659341 C40.7133498,24.8324296 40.7133498,23.2884495 40.0089944,22.0549451 L45.3182904,22.0549451 C44.6139349,23.2884495 44.6139349,24.8324296 45.3182904,26.0659341 Z M45.8130872,21.1208791 L39.7377504,21.1208791 L39.7377504,6.64285714 L45.8130872,6.64285714 L45.8130872,21.1208791 Z M47.4793007,26.0659341 C46.4303642,26.0659341 45.5801287,25.1680992 45.5801287,24.0604396 C45.5801287,22.9527799 46.4303642,22.0549451 47.4793007,22.0549451 C48.5282371,22.0549451 49.3784727,22.9527799 49.3784727,24.0604396 C49.3784727,25.1680992 48.5282371,26.0659341 47.4793007,26.0659341 Z M55.4151266,21.1939871 L46.6508353,21.1939871 L46.6508353,6.72355769 C46.6508353,6.15746351 46.2148118,5.69848901 45.6770252,5.69848901 L39.8341643,5.69848901 C39.2963776,5.69848901 38.8603541,6.15746351 38.8603541,6.72355769 L38.8603541,21.1939871 L0.881758443,21.1939871 L0.881758443,13.8990384 L4.77699903,13.8990384 C5.31478568,13.8990384 5.75080917,13.4400639 5.75080917,12.8739698 L5.75080917,6.72355769 C5.75080917,6.15746351 5.31478568,5.69848901 4.77699903,5.69848901 L0.881758443,5.69848901 L0.881758443,2.89285714 L48.5984556,2.89285714 L48.5984556,12.8739698 C48.5984556,13.4400639 49.0344791,13.8990384 49.5722657,13.8990384 L55.4151266,13.8990384 L55.4151266,21.1939871 Z M55.4151266,13.0989011 L49.3106451,13.0989011 L49.3106451,2.93406594 C52.6803189,2.9381954 55.4111587,5.78021978 55.4151266,9.28708793 L55.4151266,13.0989011 Z" id="Shape" fill-rule="nonzero"></path>
            <rect id="Rectangle" x="15" y="0" width="10" height="1"></rect>
            <rect id="Rectangle" x="27" y="0" width="2" height="1"></rect>
        </g>
    </g>
</svg>